#!OML:ASF E:/inclinewalkrobotboard/Project1/Captureday1/Session1/subject1.ASF
:FULLY-SPECIFIED
:DEGREES
26
root 0 0 0 19.178406486794863 16.2303283637855 1.4420257151135747
lowerback -10.815951436239597 1.043621229210161 -0.1881418688201657
upperback -8.099861636946528 1.5320132190319642 6.38198365557839
thorax -2.8089039903121282 0.985275602513519 7.089578647807828
lowerneck -7.57134824340901 -7.854921687101232 -4.18738867340181
upperneck 29.452580782621283 -9.441492286496032 -3.2646321368026783
head 10.43790943594148 -4.999769665579561 -1.3809464991063167
rclavicle 1.2418182126728513E-15 -1.5503484684626666E-15
rhumerus 85.86946670454816 -27.961905731633763 -79.98059141559081
rradius 16.448346306626767
rwrist 72.49462338575333
rhand -4.074348925450191 4.431050364397169
rfingers 7.12502000000008
rthumb 21.7029733492589 -24.13054979027676
lclavicle 6.656409187636975E-16 -4.652716296867877E-15
lhumerus 15.651790618050445 18.503437490076877 5.219317441280609
lradius 21.722992766419118
lwrist -37.164907569755556
lhand 1.554820870377789 35.85334839270566
lfingers 7.125020000000023
lthumb 27.087199749744514 64.09008586674233
rfemur -50.17462023204291 5.43009740836186 -9.802601144677027
rtibia 43.368094175221685
rfoot -93.11343257742207 17.58021964510522
rtoes 74.46423677140706
lfemur -14.796106322733287 -10.32445315954619 -30.243378285888365
ltibia 25.791743116202245
lfoot -22.61573093594107 10.044789718745397
ltoes -3.2387647494766743
27
root 0 0 0 19.643468270036614 17.105539701669695 2.3941991636012574
lowerback -10.712433668313551 0.8409890859495488 -0.7238321407937318
upperback -7.933923695768506 1.2168249496494108 6.217749330890886
thorax -2.6113282338524826 0.8317052205421892 7.241646074852536
lowerneck -7.918459038292649 -7.657362120842771 -4.209684090580548
upperneck 28.83037871004516 -9.095114523952347 -3.2291987880274977
head 10.242431665917689 -4.848215901085439 -1.3325886949704382
rclavicle -1.1978534559768099E-15 3.6150421032723616E-15
rhumerus 150.32530801371885 -7.754509704958206 -159.3316337694288
rradius 12.006583362879738
rwrist 108.52094487881666
rhand -14.794450247850882 8.422761071849049
rfingers 7.125020000000054
rthumb 11.426821019448232 -21.412802907656538
lclavicle 6.388192949230925E-16 -2.4918642827534916E-15
lhumerus 17.084591038076095 18.738378826008702 6.328304504330205
lradius 22.076340709976755
lwrist -36.589064616987116
lhand 1.4801877372446042 36.051964411355826
lfingers 7.1250200000000214
lthumb 27.014426539184015 64.32288315623957
rfemur -42.02539076718699 -5.558330267718503 -15.712612939674791
rtibia 42.76139268183951
rfoot -93.96067624046682 21.719689879244374
rtoes 74.24644216296939
lfemur -15.367110851463877 -10.147981067153397 -30.59645724623455
ltibia 26.165904300536127
lfoot -23.78128496072939 10.50527189567585
ltoes -3.1187705457766093
28
root 0 0 0 19.834542795078953 17.157317031423677 3.248634783222659
lowerback -10.543627948565373 0.7890938389253916 -1.1064370817627152
upperback -7.856247387286782 1.1047527747537633 6.0324601528274195
thorax -2.600589237835817 0.7883059622164464 7.286531380195343
lowerneck -8.248691735011482 -7.426278269530005 -4.174934238510593
upperneck 28.302120269182552 -8.7274492864822 -3.1670357493690977
head 10.078812239638914 -4.679393782664764 -1.2859854567032023
rclavicle -1.4039115732801342E-15 5.976450820169369E-15
rhumerus 162.07517231508442 9.6759672539993 -190.55468164636625
rradius 10.960630906497048
rwrist 116.60875464089095
rhand -19.35520363641559 10.962188883316372
rfingers 7.125020000000039
rthumb 7.030979624663676 -19.157359859770484
lclavicle 1.7718637595012566E-16 -9.803864503259942E-16
lhumerus 17.169295975825666 18.6478081256261 6.50679995299641
lradius 22.23069929580165
lwrist -36.461498425001416
lhand 1.4241984696075047 36.17357681218227
lfingers 7.125020000000022
lthumb 26.958913800974774 64.45556709124844
rfemur -31.07685282250688 -18.763089012335925 -24.543461316318776
rtibia 41.86992915431954
rfoot -94.41958047024845 23.932592735497185
rtoes 74.67156468345902
lfemur -16.104359345947877 -9.97796324624642 -30.906345253809942
ltibia 26.66636113093207
lfoot -24.38565778586228 10.74511760079074
ltoes -2.888027228381546
29
root 0 0 0 20.099396753009273 17.11322469927161 4.141537434873019
lowerback -10.324058236045449 0.7215098514679064 -1.5385432356588522
upperback -7.846107643789254 0.9709605372948926 5.866362624370307
thorax -2.6910318344506035 0.7452037795703657 7.375724999638139
lowerneck -8.52303731384681 -7.151847589365503 -4.088544415561299
upperneck 27.844339150756394 -8.309549198196768 -3.1148421463172857
head 9.933394451867523 -4.485643252441508 -1.2453422702509374
rclavicle -1.4967075925364951E-15 7.725164179232994E-15
rhumerus 165.15832179090103 18.59476821167779 -204.1951570705429
rradius 10.649440957370242
rwrist 118.1331988446613
rhand -19.91229432319138 10.970891553065808
rfingers 7.125020000000034
rthumb 6.493061015450344 -19.10856894465691
lclavicle -4.491230985781941E-16 5.989728045009351E-16
lhumerus 16.959311108663037 18.423277851239618 6.404005137934092
lradius 22.298462711445065
lwrist -36.51539624949296
lhand 1.3705891546745466 36.220574226458375
lfingers 7.125020000000023
lthumb 26.905496400298897 64.50180276572746
rfemur -14.307123726734176 -34.32314371015123 -38.93367292584305
rtibia 40.25527603020768
rfoot -93.91246541118255 21.806565132360145
rtoes 74.92005965453298
lfemur -17.210439359348904 -9.650281342666235 -31.338748725110797
ltibia 27.475651811900168
lfoot -25.03176681858018 11.106128375385659
ltoes -2.482468978325535
